<svg xmlns="http://www.w3.org/2000/svg" width="1080" height="1080" viewBox="0 0 100 100"><rect width="100" height="100" fill="#0E2A1C"></rect><circle cx="50" cy="50" r="40" fill="#EDE9DF"></circle><circle cx="50" cy="50" r="46.5" fill="none" stroke="#EDE9DF" stroke-width="3"></circle><circle cx="50" cy="50" r="40" fill="none" stroke="#1B1916" stroke-width="4"></circle><g transform="translate(25.8469 56.5428) scale(0.016113 -0.016113)"><path d="M85 0L85 688L288 688L288 164L730 164L730 0L85 0Z" fill="#1B1916" transform="translate(0 0)"></path><path d="M85 0L85 688L469 688Q596 688 687.5 648Q779 608 828.5 531Q878 454 878 344Q878 233 828.5 156.5Q779 80 687.5 40Q596 0 469 0L85 0ZM288 151L457 151Q552 151 610.5 199Q669 247 669 333L669 356Q669 441 610.5 489Q552 537 457 537L288 537L288 151Z" fill="#1B1916" transform="translate(754 0)"></path><path d="M487 -12Q270 -12 162.5 79Q55 170 55 344Q55 515 165.5 607.5Q276 700 488 700Q606 700 696 664.5Q786 629 836.5 564.5Q887 500 887 412L689 412Q689 476 632.5 512.5Q576 549 485 549Q377 549 320.5 495.5Q264 442 264 357L264 332Q264 247 320.5 193Q377 139 482 139Q581 139 637.5 174Q694 209 694 272L888 272Q888 187 839 123Q790 59 700.5 23.5Q611 -12 487 -12Z" fill="#1B1916" transform="translate(1687 0)"></path><path d="M66 0L66 183L284 183L284 0L66 0Z" fill="#C1121F" transform="translate(2629 0)"></path></g></svg>